<?xml version="1.0" encoding="utf-8"?>
<!-- Generator: Adobe Illustrator 24.0.1, SVG Export Plug-In . SVG Version: 6.00 Build 0)  -->
<svg version="1.1" id="Layer_2" xmlns="http://www.w3.org/2000/svg" xmlns:xlink="http://www.w3.org/1999/xlink" x="0px" y="0px"
	 viewBox="0 0 1011.5 238" style="enable-background:new 0 0 1011.5 238;" xml:space="preserve">
<style type="text/css">
	.st0{fill:#FC9D74;}
	.st1{fill:#FFFFFF;}
</style>
<g id="Genial-365">
</g>
<g>
	<g>
		<g>
			<path class="st0" d="M119.1,185.2c-35.9,0-65-29.1-65-65c0-35.9,29.1-65,65-65c4.2,0,8.4,0.4,12.4,1.2l30-17.7
				c-12.7-6.6-27.2-10.4-42.5-10.4c-50.8,0-91.9,41.2-91.9,91.9c0,50.8,41.2,92,91.9,92c11.2,0,22-2,31.9-5.7v-28.8l-0.5-0.6
				C141.2,182.2,130.5,185.2,119.1,185.2z"/>
		</g>
	</g>
	<path class="st1" d="M119,238C53.4,238,0,184.6,0,119S53.4,0,119,0c65.6,0,119,53.4,119,119c0,40-19.9,77.1-53.2,99.2l-10.4,6.9
		v-90.3c-16.7,0-33.4,0-50,0.1c-4.6,6.8-9.2,13.7-13.8,20.5c13.6,0,27,0,40.4,0l6.7,0v76.4l-4.8,1.4C142,236.4,130.6,238,119,238z
		 M187.8,128.3v71c23.3-20,36.9-49.1,36.9-80.2c0-58.3-47.4-105.6-105.6-105.6C60.8,13.4,13.4,60.8,13.4,119S60.8,224.7,119,224.7
		c8.6,0,17.1-1,25.3-3.1v-52.9c-12.1,0-24.1,0-36.3,0H87.1l27.1-42.6c1.5-2.2,4.7-4.5,8.2-4.6c17.5-0.1,35-0.1,52.5-0.1h12.8
		L187.8,128.3z M125.3,133.6C125.2,133.6,125.2,133.6,125.3,133.6C125.2,133.6,125.2,133.6,125.3,133.6z"/>
	<g id="_x33_65_1_">
		<path class="st0" d="M142.8,97.6c-0.1-0.1,1.2-2.2,3.8-5.2c0.7-0.8,1.5-1.5,2.2-2.3c1.8-1.8,3.4-3.5,5.2-5.3
			c0.8-0.8,1.8-0.6,2.3-0.5c0.1,0.4,0.1,1.3-0.5,2.2c-1.6,1.9-4.2,4.7-6.5,7.1c0,0,0,0,0,0c0,0,0,0,0,0c0,0-1.7,1-5.9,3.3
			C143.2,97,142.8,97.7,142.8,97.6z"/>
		<path class="st1" d="M121.6,94.1c-0.7,0.6-1.3,1.6-1.6,2.6c0.8,0.2,2.2,0.1,3.1-0.3c4.2-1.8,9.1-0.4,11.4,3.6
			c2.3,4,1.2,9-2.5,11.6c-3.6,2.6-8.5,2.1-11.6-1.3c-0.5-0.5-0.9-1.2-1.3-1.6c-0.3-0.3-1.1-0.5-1.5-0.3c-0.5,0.3-0.6,1.1-0.4,1.5
			c0.3,0.7,0.8,1.4,1.3,2c3.2,3.6,8.3,4.9,12.7,3c4.3-1.8,7.1-6,7-10.8c-0.1-4.9-3.1-9.1-7.7-10.6c-0.9-0.3-2.3-0.6-3.6-0.6
			c2.4-2,5-3.9,6.9-5.7c0.6-0.5,1.1-1.4,1.3-2.2c-0.5-0.3-1.1-0.8-2.2-0.8c-4.4-0.1-8.7-0.1-13.1,0c-0.9,0-1.7,0.7-2.4,1.2
			c0.7,0.5,1.4,1.1,2.4,1.2c3.1,0.1,7.2,0,10.4,0L121.6,94.1z"/>
		<path class="st1" d="M167.6,97.3c0.6-0.8,2.4-2.8,5.4-3.6c0,0,2.6-0.7,5.6,0c0.1,0,0.3,0.1,0.4,0.1c1.1,0.3,2.1,0.7,2.9,1.2
			c2.8,1.6,4.6,4.2,5.2,7.7c0.9,4.9-1.3,9.5-5.5,11.9c-4.1,2.4-9.6,2.1-13.4-1.2c-2.2-1.9-3.9-4.4-5.6-6.7c-0.1-0.1-0.1-0.2-0.2-0.2
			c-0.6-0.8-1.1-1.6-1.7-2.5c-1-1.6-1.9-3.2-3.1-4.6c-3-3.9-7.6-4.5-11.3-1.8c-3.8,2.8-4.8,8-2.3,11.9c2.6,4,7.7,5.3,11.8,2.9
			c0.9-0.5,2.1-1.1,2.9-1.5c0.5-0.2,0.9-0.3,1.4-0.4c-0.6,2-1.7,3.1-2.3,3.5c-0.5,0.4-1.1,0.7-1.4,0.9c-1.3,0.7-2.5,1-3.3,1.1
			c-0.9,0.1-5.5,0.5-9.2-2.8c-4.2-3.8-4.3-10-2.4-13.9c0.9-1.8,2.2-3,2.6-3.4c0.7-0.6,2.7-2.4,5.9-2.7c2.5-0.2,4.3,0.5,5.1,0.8
			c1.7,0.7,3.1,1.8,4.3,3.2c0.8,0.9,1.6,1.9,2.3,3c2,3.1,3.9,6.2,6.1,9.1c2.4,3.2,5.8,4.7,9.9,3.9c3.7-0.7,6.6-3.8,7-7.5
			c0.4-2.9-0.7-5.9-2.9-7.8c-0.6-0.5-1.2-1-1.9-1.3c-1-0.5-2-0.8-3-0.9c-1-0.1-4.1-0.1-6.5,2c-0.7,0.6-1.4,1.5-2.8,2
			c-0.3,0.1-0.6,0.2-0.8,0.3c0-0.3,0-0.5,0-0.9C166.9,98.4,167.3,97.7,167.6,97.3z"/>
		<path class="st1" d="M168.4,86.7c0,2.1,0,3.3-0.1,5.1c0,0.6-0.7,1.3-1.2,1.7c-0.5-0.4-1.1-1-1.1-1.5c0-2.4-0.1-4,0-6.1
			c0-1.1,1-1.6,1.6-1.6c4.9-0.1,9.5-0.1,14.3,0c0.6,0,1.4,0.6,1.7,1.2c-0.4,0.5-1.2,1.1-1.8,1.1C177.3,86.7,173.2,86.7,168.4,86.7z"
			/>
	</g>
</g>
<g id="Genial_1_">
	<path class="st1" d="M389.9,101.8c1.9,0,3.2,0.2,3.9,0.5c0.7,0.4,1.1,1.1,1.1,2.3c0,1.2-0.7,2.4-2,3.8c-1.3,1.3-2,3.2-2,5.6v6.7
		c0,1.8,0.5,3.2,1.6,4.2c1.1,1,1.6,1.9,1.6,2.8c0,2.2-2.4,5-7.1,8.4c-4.7,3.4-10.7,6.3-17.9,8.7c-7.2,2.4-14.1,3.6-20.8,3.6
		c-16.9,0-31.4-5.6-43.6-16.8c-12.2-11.2-18.2-26-18.2-44.6c0-10.8,2.5-20.9,7.4-30.2c5-9.3,11.8-16.6,20.7-21.8
		c8.8-5.2,18.7-7.8,29.7-7.8c10.7,0,20.5,1.9,29.6,5.8c9.1,3.9,13.6,8.2,13.6,12.9v6.5c0,0.6,0.1,1.6,0.4,3c0.3,1.3,0.4,2.6,0.4,3.7
		c0,1.1-0.3,2-0.8,2.8c-0.5,0.8-1.2,1.2-2.1,1.2c-0.9,0-1.8-0.4-2.6-1.1c-0.8-0.7-2-2.7-3.6-6c-3-6.2-6.1-10.6-9.3-13.4
		c-5.7-4.8-13.6-7.2-23.7-7.2c-12.8,0-23.1,4.7-30.8,14C307.8,58.7,304,71,304,86.2c0,17.3,4.2,30.7,12.5,40
		c8.4,9.4,19.1,14.1,32.3,14.1c6.8,0,13.2-1.4,19-4.1c5.9-2.7,8.8-6.7,8.8-11.9v-10.9c0-2.6-2.5-4-7.5-4c-0.9,0-2.2,0.1-4,0.2
		c-1.8,0.1-3.1,0.2-3.9,0.2c-2.1,0-3.7-0.4-4.8-1.2c-1.1-0.8-1.7-1.9-1.7-3.2c0-2.4,1.6-3.5,4.7-3.5H389.9z"/>
	<path class="st1" d="M449.1,114.4c1.2,0,2.1-0.2,2.5-0.6c0.4-0.4,0.6-1.2,0.6-2.3c0-4.1-1.6-8-4.8-11.6c-3.2-3.6-8.1-5.4-14.6-5.4
		c-4.5,0-9.1,2.1-13.9,6.4c-4.8,4.3-7.2,10.3-7.2,18.2c0,5.7,2.5,10.9,7.6,15.4c5.1,4.6,10.7,6.8,17,6.8c4.8,0,9.9-1.5,15.4-4.5
		c2.1-1.1,3.5-1.7,4.1-1.7c1,0,1.7,0.3,2.3,0.8c0.6,0.5,0.9,1.2,0.9,2.1c0,2-3,4.4-9,7.2c-6,2.8-12.1,4.2-18.5,4.2
		c-9.4,0-17.2-3.2-23.6-9.6c-6.4-6.4-9.6-14-9.6-22.8c0-8.1,3.5-15,10.5-20.7c7-5.7,14.9-8.6,23.6-8.6c11.3,0,19.8,2.9,25.4,8.7
		c5.6,5.8,8.4,12.7,8.4,20.8c0,1.7-0.4,2.8-1.3,3.2c-0.9,0.4-2.5,0.6-4.8,0.6H423c-3,0-4.5-1.1-4.5-3.4c0-2.1,1.6-3.2,4.7-3.2H449.1
		z"/>
	<path class="st1" d="M481.6,103.8c0-2-0.4-3.5-1.2-4.5c-0.8-1-2.4-1.7-4.9-2.1c-2.5-0.4-3.7-1.6-3.7-3.4c0-0.8,0.4-1.5,1.3-2.3
		c0.9-0.7,2-1.1,3.4-1.1c0.6,0,1.6,0.2,3.1,0.6c1.5,0.4,2.7,0.6,3.7,0.6c0.6,0,2-0.2,4.1-0.5c2.1-0.3,3.5-0.5,4-0.5
		c1.1,0,1.8,0.4,2.3,1.3c0.4,0.9,0.7,2.7,0.7,5.4c0.1,4.5,0.2,9.3,0.2,14.4l-0.5,23.1c0,1.7,0.1,2.7,0.4,3.1
		c0.3,0.4,0.9,0.9,1.9,1.5c1,0.6,2.3,1.1,3.9,1.4c1.6,0.3,2.6,0.8,3,1.4c0.4,0.6,0.6,1.3,0.6,2c0,1.8-1.4,2.7-4.2,2.7
		c-2,0-4-0.2-6-0.5c-2.1-0.4-4.1-0.5-6.1-0.5c-1.6,0-3.7,0.2-6.3,0.4s-4.5,0.4-5.7,0.4c-2.8,0-4.2-1-4.2-3c0-0.9,0.2-1.6,0.7-2.1
		c0.5-0.5,1.5-0.9,3.2-1c1.8-0.1,3-0.4,3.4-0.8c1.2-1.3,2-2.4,2.4-3.4s0.5-3,0.5-6V103.8z M531.4,135c0,2.3,0.4,3.9,1.2,4.6
		c0.8,0.7,2.2,1.3,4.2,1.8c2,0.5,3,1.3,3,2.6c0,1.7-1,2.6-3,2.6c-0.4,0-2-0.1-4.9-0.3c-2.9-0.2-5.3-0.3-7.2-0.3
		c-3.3,0-6,0.2-8.2,0.6c-2.2,0.4-3.7,0.6-4.3,0.6c-1,0-1.9-0.3-2.7-1c-0.8-0.7-1.3-1.5-1.3-2.4c0-0.7,0.4-1.4,1.1-2
		c0.7-0.6,1.5-0.9,2.4-0.9c1.7,0,3.3-0.5,4.6-1.5c1.4-1,2-2.5,2-4.5c0-13,0.1-21.1,0.2-24.2c0.2-3.1,0.2-4.8,0.2-5.2
		c0-4.2-1.9-6.3-5.8-6.3c-1.7,0-4,1.3-7.1,3.8c-3.1,2.5-5.3,3.8-6.6,3.8c-0.4,0-0.9-0.3-1.4-0.8c-0.5-0.5-0.8-1.1-0.8-1.7
		c0-1.9,2.5-4.8,7.5-8.7c5-3.9,9.8-5.8,14.6-5.8c2.8,0,5.2,0.7,7.3,2.2c2.1,1.4,3.4,3.2,4.1,5.4c0.7,2.2,1,5.2,1,9.2l-0.1,5.2V135z"
		/>
	<path class="st1" d="M571,133.5c0,2.7,0.5,4.4,1.5,5.2c1,0.8,2.3,1.3,3.9,1.6c1.6,0.2,2.8,0.6,3.5,1c0.7,0.4,1,1.3,1,2.7
		c0,1.8-1.6,2.7-4.7,2.7c-1.4,0-3.4-0.2-6.1-0.5c-2.7-0.3-4.7-0.5-6-0.5c-1.3,0-3.2,0.2-5.7,0.6c-2.5,0.4-4.4,0.6-5.6,0.6
		s-2.3-0.4-3.2-1.1c-0.9-0.7-1.3-1.6-1.3-2.8c0-0.7,0.2-1.3,0.7-1.8c0.5-0.5,1.7-0.9,3.7-1.3c2-0.3,3.4-1,4.2-1.9
		c0.8-1,1.2-3.3,1.2-7.1v-27.4c0-2.3-0.5-3.9-1.5-4.6c-1-0.8-2.4-1.3-4.3-1.7c-1.9-0.4-3.1-0.9-3.5-1.5c-0.5-0.6-0.7-1.3-0.7-2.2
		c0-1,0.4-1.8,1.2-2.4c0.8-0.6,1.7-0.9,2.8-0.9c0.9,0,2.2,0.2,4,0.6c1.7,0.4,3,0.6,3.8,0.6c0.9,0,2.3-0.1,4.2-0.4
		c1.9-0.3,3.3-0.4,4.2-0.4c2,0,3,1.7,3,5c0,0.5,0,1.3-0.1,2.2c-0.1,0.9-0.1,1.5-0.1,1.8V133.5z"/>
	<circle class="st0" cx="560" cy="75.1" r="6.6"/>
	<path class="st1" d="M646.2,132.4c0,3.9,2.6,6.6,7.8,8.1c1.3,0.4,2.3,0.8,2.9,1.3c0.6,0.5,0.9,1.4,0.9,2.8c0,0.7-0.4,1.3-1.3,1.8
		c-0.8,0.5-1.7,0.8-2.7,0.8c-1,0-2.4-0.2-4.2-0.7c-1.8-0.5-3.2-0.7-4.3-0.7c-1.2,0-2.8,0.2-4.7,0.7c-1.9,0.5-3.2,0.7-3.8,0.7
		c-0.8,0-1.5-0.3-2.2-0.8c-0.7-0.5-1.1-1.1-1.1-1.6c0-0.9-0.3-1.3-0.8-1.3c-0.4,0-0.9,0.2-1.5,0.6c-6.1,3.8-12.7,5.7-19.8,5.7
		c-3.4,0-7.1-0.9-11.2-2.6c-4.1-1.7-7.5-4.4-9.9-8c-2.5-3.6-3.7-8-3.7-13.4c0-5.6,2.7-10.6,8.1-14.9c5.4-4.3,12.3-6.5,20.8-6.5
		c2.9,0,6,0.8,9.4,2.4c3.4,1.6,5.1,3.2,5.1,4.9c0,0.8-0.4,1.5-1.1,1.9c-0.7,0.5-1.6,0.7-2.6,0.7c-0.7,0-2.1-0.5-4.1-1.5
		c-2.1-1-4.2-1.5-6.3-1.5c-4.4,0-8.1,1.3-11,3.9c-2.9,2.6-4.4,6.1-4.4,10.5c0,5.1,1.7,9,5,11.7c3.4,2.7,7.2,4.1,11.6,4.1
		c3.9,0,7.6-1.3,10.9-3.9c3.3-2.6,5-6.1,5-10.4v-22c0-3.3-1.1-6-3.3-8c-2.2-2.1-5.1-3.1-8.8-3.1c-4.7,0-9.3,1.5-13.7,4.5
		c-1.5,1-2.5,1.5-3.1,1.5c-1.3,0-2.4-0.3-3.3-1c-0.9-0.7-1.4-1.6-1.4-2.6c0-2.7,2.4-4.9,7.3-6.7c4.8-1.8,10.1-2.8,15.9-2.8
		c7.1,0,12.8,1.8,17.1,5.4c4.3,3.6,6.5,7.8,6.5,12.7V132.4z"/>
	<path class="st1" d="M686.1,135c0,1.5,0.4,2.7,1.1,3.7c0.8,1,2.4,1.8,5,2.2c2.6,0.4,4.2,1,4.7,1.6c0.6,0.7,0.9,1.5,0.9,2.5
		c0,1.8-1.3,2.6-4,2.6c-1.6,0-4-0.2-7.2-0.6s-5.6-0.6-7.2-0.6c-1.5,0-3.7,0.2-6.7,0.6s-5.2,0.6-6.7,0.6c-2.2,0-3.6-0.2-4.2-0.7
		c-0.6-0.5-0.9-1.2-0.9-2.1c0-0.9,0.3-1.6,0.8-2.2c0.5-0.6,2.1-1.1,4.9-1.5c2.7-0.4,4.5-1.3,5.4-2.7c0.8-1.4,1.3-3,1.3-4.8V46.1
		c0-1.9-0.4-3.6-1.3-5c-0.9-1.4-2.7-2.5-5.4-3.1c-2.7-0.6-4.3-1.3-4.8-2c-0.5-0.7-0.8-1.4-0.8-2.2c0-0.8,0.4-1.5,1.3-2
		c0.9-0.5,1.8-0.7,2.8-0.7c0.9,0,2.2,0.2,3.9,0.5c1.7,0.3,3,0.5,3.8,0.5c0.9,0,2.3-0.2,4.2-0.5c1.8-0.3,3.2-0.5,4.2-0.5
		c1.7,0,3,0.5,3.8,1.4c0.8,0.9,1.2,2.6,1.2,5V135z"/>
</g>
<g id="_x33_65">
	<path class="st0" d="M818.9,83c-0.3-0.2,4.3-7.9,13.7-18.5c2.6-2.8,5.3-5.5,7.9-8.2c6.3-6.5,12.1-12.6,18.6-18.9
		c2.9-2.8,6.2-2,8.1-1.7c0.3,1.4,0.5,4.8-1.9,7.7c-5.6,6.7-15,16.9-23,25.2c0,0,0,0,0,0c0,0-0.1,0-0.1,0c-0.1,0-6.2,3.4-20.9,11.6
		C820.6,80.8,819,83.1,818.9,83z"/>
	<path class="st1" d="M743.7,70.3c-2.6,2.3-4.7,5.8-5.7,9.1c3,0.5,7.8,0.4,11-1c15.1-6.5,32.2-1.3,40.4,12.8
		c8.2,14.1,4.3,31.9-9,41.4c-12.9,9.3-30.2,7.3-41.2-4.7c-1.7-1.9-3.3-4.4-4.8-5.8c-1.2-1.2-3.8-1.9-5.5-0.9c-1.7,1-2.1,3.9-1.5,5.4
		c0.9,2.6,2.9,5,4.7,7.2c11.3,13,29.4,17.3,45.3,10.8c15.5-6.3,25.2-21.3,25-38.3c-0.3-17.4-11-32.3-27.3-37.8
		c-3.2-1.1-8.2-2-12.6-2.2c8.5-7,17.7-13.9,24.7-20.2c2.1-1.9,3.8-5.1,4.5-7.7c-1.8-1.2-3.8-2.7-7.8-2.8c-15.5-0.3-31-0.4-46.5,0.1
		c-3.1,0.1-5.9,2.4-8.4,4.3c2.5,1.9,4.9,4,8.5,4.2c11,0.5,25.8,0.1,36.8,0.1L743.7,70.3z"/>
	<path class="st1" d="M907.2,81.7c2.2-2.7,8.7-9.9,19.3-12.8c0,0,9.4-2.3,19.9-0.1c0.5,0.1,1,0.3,1.5,0.4c3.8,1.1,7.3,2.5,10.4,4.3
		c9.9,5.7,16.2,14.9,18.4,27.4c3.2,17.5-4.6,33.9-19.4,42.4c-14.7,8.5-34.2,7.5-47.6-4.4c-7.7-6.8-13.8-15.6-20-24
		c-0.2-0.3-0.4-0.6-0.6-0.8c-2.1-2.8-4-5.8-5.9-8.8c-3.5-5.6-6.8-11.3-10.9-16.4c-10.8-13.8-26.9-16-40-6.4
		c-13.6,10-17.1,28.4-8.1,42.4c9.1,14.2,27.5,18.8,41.8,10.3c3.2-1.9,7.4-4.1,10.2-5.2c1.9-0.8,3.2-1,4.9-1.4
		c-2.2,7.3-6.1,11-8,12.6c-1.9,1.5-3.7,2.5-5.1,3.2c-4.6,2.4-8.9,3.4-11.7,3.9c-3.1,0.3-19.7,1.8-32.7-10
		C808.8,125,808.3,102.7,815,89c3.1-6.4,7.7-10.7,9.1-11.9c2.5-2.2,9.7-8.5,21-9.6c8.7-0.9,15.3,1.9,18,3c6,2.5,10.9,6.5,15.3,11.3
		c2.9,3.3,5.5,6.9,8,10.8c7,10.9,13.7,22.1,21.6,32.4c8.7,11.3,20.6,16.8,35.3,14c13.2-2.5,23.3-13.4,25-26.5
		c1.3-10.4-2.6-20.8-10.2-27.6c-2-1.9-4.3-3.4-6.8-4.7c-3.4-1.7-7-2.8-10.6-3.1c-3.4-0.3-14.7-0.2-23.2,7.2c-2.6,2.3-5,5.2-10,7.1
		c-1.2,0.5-2.3,0.7-3,0.9c0-0.9,0-1.9,0.1-3C904.9,85.8,906.2,83.3,907.2,81.7z"/>
	<path class="st1" d="M910.1,44.3c0,7.4,0.1,11.6-0.2,18.1c-0.1,2.2-2.5,4.5-4.4,6.1c-1.8-1.3-3.9-3.5-3.9-5.4
		c-0.1-8.5-0.2-14.3,0.1-21.6c0.2-3.9,3.7-5.8,5.7-5.8c17.3-0.3,33.9-0.4,50.8-0.1c2,0,5.1,2.3,6,4.4c-1.5,1.7-4.2,4-6.3,4.1
		C941.9,44,927.1,44.3,910.1,44.3z"/>
</g>
<g>
	<path class="st0" d="M295.4,204.7c-3.6-3.6-5.4-8-5.4-13.2s1.9-9.7,5.6-13.4s8.3-5.5,13.7-5.5c1.8,0,3.5,0.2,5.1,0.6
		c1.6,0.4,2.9,0.9,4,1.5s1.9,1.2,2.7,1.7c0.8,0.6,1.3,1.1,1.7,1.5l0.5,0.6l-5.8,5.1c-0.1-0.1-0.2-0.2-0.3-0.4
		c-0.1-0.2-0.5-0.4-1-0.9s-1.1-0.8-1.6-1.1c-0.6-0.3-1.3-0.6-2.3-0.9c-1-0.3-2-0.4-3-0.4c-3.2,0-5.9,1.1-8,3.3
		c-2.1,2.2-3.2,4.9-3.2,8.1c0,3.3,1.1,6,3.2,8.2c2.1,2.2,4.8,3.3,8,3.3c1.1,0,2.2-0.1,3.2-0.4c1-0.3,1.8-0.6,2.5-1
		c0.7-0.4,1.2-0.8,1.7-1.2c0.5-0.4,0.8-0.8,1.1-1l0.3-0.5l5.6,5c-0.1,0.2-0.3,0.4-0.6,0.7c-0.2,0.3-0.8,0.8-1.7,1.6
		c-0.9,0.7-1.8,1.4-2.9,2s-2.4,1.1-4.1,1.6c-1.7,0.5-3.5,0.7-5.4,0.7C303.5,210,299,208.2,295.4,204.7z"/>
	<path class="st0" d="M328.9,209.5v-36.4h7.6v36.4H328.9z"/>
	<path class="st0" d="M346.8,186.2c2.8-2.7,6.3-4.1,10.5-4.1c4.2,0,7.6,1.3,10.3,3.9c2.7,2.6,4.1,5.9,4.1,9.9s-1.4,7.3-4.2,10
		c-2.8,2.7-6.3,4.1-10.5,4.1c-4.2,0-7.6-1.3-10.3-4c-2.7-2.6-4.1-5.9-4.1-9.9C342.5,192.2,344,188.9,346.8,186.2z M357.1,203.1
		c2,0,3.7-0.7,5-2c1.3-1.4,2-3,2-5s-0.7-3.6-2-5c-1.3-1.4-3-2-5-2c-2,0-3.6,0.7-5,2c-1.3,1.4-2,3-2,5s0.7,3.6,2,5
		C353.4,202.4,355.1,203.1,357.1,203.1z"/>
	<path class="st0" d="M395.5,196.3v-13.7h7.5v26.8h-6.7l-0.4-4.1c-1.9,3.1-4.9,4.6-8.8,4.6c-2.9,0-5.4-1-7.3-2.9
		c-1.9-1.9-2.8-4.6-2.8-8.1v-16.3h7.5v13.9c0,2.2,0.5,3.8,1.4,4.9c1,1.1,2.2,1.6,3.8,1.6c1.7,0,3.1-0.6,4.1-1.7
		C395,200.3,395.5,198.6,395.5,196.3z"/>
	<path class="st0" d="M437.6,173.1v36.4h-6.3l-0.6-4c-2.2,3-5.2,4.5-8.9,4.5c-3.6,0-6.6-1.3-9.2-4c-2.5-2.7-3.8-5.9-3.8-9.8
		c0-3.9,1.3-7.2,3.9-10c2.6-2.7,5.7-4.1,9.3-4.1c3.4,0,6,1.2,8.1,3.6v-12.6H437.6z M423.3,189c-2,0-3.6,0.7-5,2c-1.3,1.4-2,3-2,5
		s0.7,3.6,2,5c1.3,1.4,3,2,5,2c2,0,3.7-0.7,5-2c1.3-1.4,2-3,2-5s-0.7-3.6-2-5C427,189.7,425.3,189,423.3,189z"/>
	<path class="st0" d="M460.7,194.4h-16.6v-6.7h16.6V194.4z"/>
	<path class="st0" d="M468.3,173.1h16.3c3.4,0,6.2,0.9,8.3,2.6s3.1,4,3.1,6.7c0,1.7-0.4,3.3-1.3,4.7c-0.9,1.4-2.1,2.5-3.7,3.4
		c2.1,0.7,3.7,1.8,4.9,3.4c1.2,1.6,1.8,3.4,1.8,5.5c0,2.9-1.1,5.3-3.4,7.2c-2.3,1.9-5.2,2.9-8.7,2.9h-17.3V173.1z M476.2,187.9h6.7
		c1.6,0,2.9-0.4,3.8-1.2c0.9-0.8,1.4-1.9,1.4-3.1c0-1.2-0.5-2.3-1.4-3.1c-0.9-0.8-2.2-1.2-3.8-1.2h-6.7V187.9z M476.2,193.6v9.8h7.9
		c1.7,0,3.1-0.5,4.1-1.4c1-1,1.5-2.1,1.5-3.5c0-1.4-0.5-2.5-1.5-3.5c-1-0.9-2.4-1.4-4.1-1.4H476.2z"/>
	<path class="st0" d="M513.2,193.4c2.7,0,5,0.6,6.9,1.9v-1.1c0-1.8-0.6-3.3-1.7-4.3c-1.1-1-2.6-1.5-4.4-1.5c-1.2,0-2.4,0.2-3.5,0.5
		c-1.1,0.3-1.9,0.7-2.4,1l-0.7,0.5l-3.1-4.8c0.3-0.3,0.8-0.6,1.3-1s1.8-0.9,3.8-1.6c1.9-0.7,4-1,6.1-1c3.8,0,6.8,1.1,8.9,3.2
		c2.2,2.1,3.3,5.1,3.3,8.9v15.2h-5.9l-0.6-2.3c-2,1.9-4.8,2.8-8.2,2.8c-3.2,0-5.7-0.8-7.5-2.3s-2.8-3.5-2.8-5.9s1-4.4,2.9-6
		C507.5,194.2,510,193.4,513.2,193.4z M515.1,205.2c1.6,0,2.9-0.3,3.8-1c0.9-0.7,1.4-1.6,1.4-2.6c0-1-0.5-1.9-1.4-2.6
		c-0.9-0.7-2.2-1-3.7-1c-1.5,0-2.7,0.3-3.6,1c-0.9,0.7-1.4,1.6-1.4,2.6c0,1.1,0.5,2,1.4,2.6S513.6,205.2,515.1,205.2z"/>
	<path class="st0" d="M545.6,193.2c2.6,0.8,4.7,1.9,6.1,3.3s2.1,3.1,2.1,5c0,2.5-1,4.5-2.9,6.1c-1.9,1.6-4.5,2.4-7.9,2.4
		c-1.3,0-2.5-0.2-3.7-0.5c-1.2-0.3-2.2-0.7-3-1.1c-0.8-0.4-1.6-0.8-2.2-1.2c-0.7-0.4-1.2-0.6-1.5-0.9l-0.5-0.3l3.2-4.8
		c0.3,0.3,0.6,0.5,1.1,0.8c0.5,0.2,1.4,0.7,2.7,1.4s2.6,1,3.9,1c1,0,1.9-0.2,2.5-0.7c0.6-0.4,0.9-1,0.9-1.6c0-0.8-0.4-1.4-1.1-2
		c-0.8-0.6-2.3-1.2-4.6-2c-2.4-0.8-4.2-1.8-5.5-3.2c-1.3-1.4-1.9-3-1.9-4.9c0-2.2,0.9-4.1,2.8-5.6c1.8-1.5,4.3-2.3,7.5-2.3
		c1.1,0,2.2,0.1,3.3,0.3c1.1,0.2,2,0.5,2.8,0.8c0.8,0.3,1.5,0.7,2.1,1c0.6,0.3,1.1,0.6,1.4,0.8l0.4,0.4l-3.2,4.9
		c-0.2-0.2-0.5-0.5-0.9-0.8c-0.4-0.3-1.2-0.7-2.3-1.2c-1.1-0.5-2.3-0.8-3.3-0.8c-1,0-1.8,0.2-2.3,0.6c-0.6,0.4-0.8,0.9-0.8,1.4
		c0,0.7,0.3,1.3,1,1.8C542.3,192.1,543.6,192.6,545.6,193.2z"/>
	<path class="st0" d="M585.4,197.5h-19.9c0.3,1.8,1.1,3.3,2.4,4.3s3,1.6,4.9,1.6c1.4,0,2.7-0.3,3.8-0.8c1.2-0.5,2-1.1,2.5-1.6
		l0.7-0.8l4.5,4.3c-0.1,0.1-0.3,0.3-0.4,0.6c-0.2,0.2-0.6,0.7-1.4,1.3c-0.7,0.6-1.5,1.2-2.3,1.7c-0.9,0.5-2,0.9-3.4,1.3
		c-1.4,0.4-2.9,0.6-4.5,0.6c-4.2,0-7.6-1.3-10.3-4c-2.7-2.6-4.1-5.9-4.1-9.9c0-4,1.4-7.3,4.2-10c2.8-2.7,6.2-4.1,10.3-4.1
		c3.7,0,6.9,1.3,9.5,3.8s3.9,5.6,3.9,9.1c0,0.5,0,0.9-0.1,1.3s-0.1,0.7-0.2,0.9L585.4,197.5z M572.3,187.6c-1.7,0-3.1,0.5-4.3,1.5
		c-1.2,1-2,2.2-2.3,3.8h12.8c-0.2-1.5-1-2.7-2.1-3.7C575.2,188.1,573.8,187.6,572.3,187.6z"/>
	<path class="st0" d="M619,173.1v36.4h-6.3l-0.6-4c-2.2,3-5.2,4.5-8.9,4.5c-3.6,0-6.6-1.3-9.2-4c-2.5-2.7-3.8-5.9-3.8-9.8
		c0-3.9,1.3-7.2,3.9-10c2.6-2.7,5.7-4.1,9.3-4.1c3.4,0,6,1.2,8.1,3.6v-12.6H619z M604.7,189c-2,0-3.6,0.7-5,2c-1.3,1.4-2,3-2,5
		s0.7,3.6,2,5c1.3,1.4,3,2,5,2c2,0,3.7-0.7,5-2c1.3-1.4,2-3,2-5s-0.7-3.6-2-5C608.4,189.7,606.7,189,604.7,189z"/>
	<path class="st0" d="M669.6,209.5h-27.3v-36.4h26.8v6.9h-18.8v7.5h16.2v6.4h-16.2v8.6h19.3V209.5z"/>
	<path class="st0" d="M676.9,209.5v-36.4h16.3c3.9,0,7,1.1,9.5,3.3c2.4,2.2,3.6,5,3.6,8.5c0,2.6-0.7,4.8-2.1,6.8
		c-1.4,1.9-3.2,3.3-5.6,4.2l9.2,13.6h-9.2l-8.2-12.5h-5.6v12.5H676.9z M692.1,179.8h-7.3v11h7.3c1.9,0,3.4-0.5,4.5-1.5
		c1.1-1,1.7-2.3,1.7-4c0-1.6-0.6-3-1.7-4C695.6,180.3,694,179.8,692.1,179.8z"/>
	<path class="st0" d="M714,209.5v-36.4h15.8c4.1,0,7.4,1.1,9.9,3.4c2.5,2.3,3.7,5.2,3.7,8.9c0,3.6-1.3,6.6-3.9,9
		c-2.6,2.4-5.9,3.5-10,3.5H722v11.5H714z M729,179.8h-7v11.6h7c1.9,0,3.5-0.5,4.7-1.6c1.2-1.1,1.8-2.5,1.8-4.2
		c0-1.7-0.6-3.1-1.8-4.2C732.5,180.3,730.9,179.8,729,179.8z"/>
	<path class="st0" d="M779.1,187.7c6.9,2.7,10.4,6.5,10.4,11.4c0,3.1-1.2,5.7-3.6,7.8c-2.4,2.1-5.6,3.1-9.5,3.1
		c-1.7,0-3.3-0.2-4.9-0.6c-1.6-0.4-2.9-0.8-3.9-1.4c-1-0.5-2-1-2.8-1.6c-0.8-0.5-1.4-1-1.8-1.4l-0.5-0.6l4.7-5
		c0.1,0.1,0.3,0.3,0.5,0.4c0.2,0.2,0.6,0.5,1.3,1c0.7,0.5,1.3,0.9,2.1,1.2c0.7,0.3,1.6,0.7,2.7,1c1.1,0.3,2.1,0.4,3.1,0.4
		c1.4,0,2.5-0.3,3.3-1c0.9-0.7,1.3-1.5,1.3-2.6c0-1.2-0.6-2.3-1.8-3.3c-1.2-1-3.3-2.1-6.5-3.4c-5.8-2.3-8.7-5.7-8.7-10.5
		c0-3,1.2-5.5,3.5-7.4c2.3-1.9,5.4-2.9,9.2-2.9c1.5,0,2.9,0.2,4.3,0.5c1.4,0.3,2.5,0.7,3.5,1.2c0.9,0.5,1.7,0.9,2.5,1.4
		c0.7,0.5,1.2,0.8,1.6,1.1l0.5,0.5l-4.7,5c-0.2-0.2-0.6-0.5-1-0.9c-0.4-0.4-1.3-0.8-2.6-1.5c-1.3-0.6-2.6-0.9-4-0.9
		c-1.5,0-2.6,0.3-3.4,1c-0.8,0.7-1.2,1.4-1.2,2.3c0,1.1,0.5,2,1.4,2.8C774.9,185.8,776.6,186.7,779.1,187.7z"/>
	<path class="st0" d="M798.7,186.2c2.8-2.7,6.3-4.1,10.5-4.1c4.2,0,7.6,1.3,10.3,3.9s4.1,5.9,4.1,9.9s-1.4,7.3-4.2,10
		c-2.8,2.7-6.3,4.1-10.5,4.1c-4.2,0-7.6-1.3-10.3-4c-2.7-2.6-4.1-5.9-4.1-9.9C794.5,192.2,795.9,188.9,798.7,186.2z M809,203.1
		c2,0,3.7-0.7,5-2c1.3-1.4,2-3,2-5s-0.7-3.6-2-5c-1.3-1.4-3-2-5-2c-2,0-3.6,0.7-5,2c-1.3,1.4-2,3-2,5s0.7,3.6,2,5
		C805.3,202.4,807,203.1,809,203.1z"/>
	<path class="st0" d="M829.5,209.5v-36.4h7.6v36.4H829.5z"/>
	<path class="st0" d="M862.6,196.3v-13.7h7.5v26.8h-6.7l-0.4-4.1c-1.9,3.1-4.9,4.6-8.8,4.6c-2.9,0-5.4-1-7.3-2.9
		c-1.9-1.9-2.8-4.6-2.8-8.1v-16.3h7.5v13.9c0,2.2,0.5,3.8,1.4,4.9c1,1.1,2.2,1.6,3.8,1.6c1.7,0,3.1-0.6,4.1-1.7
		C862.1,200.3,862.6,198.6,862.6,196.3z"/>
	<path class="st0" d="M887.6,176.2v6.4h8.3v6h-8.3v10.9c0,2.4,1.1,3.5,3.2,3.5c0.6,0,1.3,0,2-0.1c0.7-0.1,1.3-0.2,1.7-0.3l0.6-0.2
		l0.9,6.2c-1.9,0.8-4.3,1.2-7.1,1.2c-2.7,0-4.9-0.7-6.4-2.2c-1.6-1.5-2.3-3.6-2.3-6.3v-12.8h-4.9v-6h4.9v-6.4H887.6z"/>
	<path class="st0" d="M902,171.9c0.9-0.9,2-1.3,3.4-1.3s2.5,0.4,3.4,1.3c0.9,0.9,1.4,2,1.4,3.3c0,1.4-0.5,2.5-1.4,3.4
		c-0.9,0.9-2,1.3-3.4,1.3s-2.5-0.4-3.4-1.3c-0.9-0.9-1.3-2-1.3-3.4C900.7,173.9,901.1,172.8,902,171.9z M901.6,209.5v-26.8h7.6v26.8
		H901.6z"/>
	<path class="st0" d="M919.5,186.2c2.8-2.7,6.3-4.1,10.5-4.1c4.2,0,7.6,1.3,10.3,3.9s4.1,5.9,4.1,9.9s-1.4,7.3-4.2,10
		c-2.8,2.7-6.3,4.1-10.5,4.1c-4.2,0-7.6-1.3-10.3-4c-2.7-2.6-4.1-5.9-4.1-9.9C915.3,192.2,916.7,188.9,919.5,186.2z M929.8,203.1
		c2,0,3.7-0.7,5-2c1.3-1.4,2-3,2-5s-0.7-3.6-2-5c-1.3-1.4-3-2-5-2c-2,0-3.6,0.7-5,2c-1.3,1.4-2,3-2,5s0.7,3.6,2,5
		C926.1,202.4,927.8,203.1,929.8,203.1z"/>
	<path class="st0" d="M957.6,195.8v13.7h-7.5v-26.8h6.7l0.4,4.1c1.9-3.1,4.9-4.6,8.8-4.6c2.9,0,5.4,1,7.3,2.9
		c1.9,1.9,2.8,4.6,2.8,8.1v16.3h-7.5v-13.9c0-2.1-0.5-3.8-1.4-4.9c-1-1.1-2.2-1.6-3.8-1.6c-1.7,0-3.1,0.6-4.1,1.7
		C958.1,191.8,957.6,193.5,957.6,195.8z"/>
</g>
<path id="R" class="st1" d="M996.5,48.8l-3.7-5.3h-0.2h-3.9v5.3h-4.4V29.6h8.3c1.7,0,3.2,0.3,4.4,0.9c1.3,0.6,2.2,1.4,2.9,2.4
	c0.7,1,1,2.3,1,3.7s-0.3,2.7-1,3.7c-0.7,1-1.7,1.8-2.9,2.4l4.3,6.2H996.5z M995.4,34.1c-0.7-0.6-1.7-0.9-3-0.9h-3.6v6.7h3.6
	c1.3,0,2.4-0.3,3-0.9c0.7-0.6,1-1.4,1-2.5C996.4,35.5,996.1,34.7,995.4,34.1z M991.5,22.4c9.3,0,16.8,7.5,16.8,16.8
	S1000.7,56,991.5,56c-9.3,0-16.8-7.5-16.8-16.8S982.2,22.4,991.5,22.4 M991.5,19.2c-11,0-20,9-20,20s9,20,20,20c11,0,20-9,20-20
	S1002.5,19.2,991.5,19.2L991.5,19.2z"/>
</svg>
