<?xml version="1.0" encoding="utf-8"?>
<!-- Generator: Adobe Illustrator 24.0.1, SVG Export Plug-In . SVG Version: 6.00 Build 0)  -->
<svg version="1.1" id="Layer_2_1_" xmlns="http://www.w3.org/2000/svg" xmlns:xlink="http://www.w3.org/1999/xlink" x="0px" y="0px"
	 viewBox="0 0 238 238" style="enable-background:new 0 0 238 238;" xml:space="preserve">
<style type="text/css">
	.st0{fill:#FC9D74;}
	.st1{fill:#FFFFFF;}
</style>
<g id="Genial-365">
</g>
<g>
	<g>
		<g>
			<path class="st0" d="M119.1,185.2c-35.9,0-65-29.1-65-65s29.1-65,65-65c4.2,0,8.4,0.4,12.4,1.2l30-17.7
				c-12.7-6.6-27.2-10.4-42.5-10.4c-50.8,0-91.9,41.2-91.9,91.9c0,50.8,41.2,92,91.9,92c11.2,0,22-2,31.9-5.7v-28.8l-0.5-0.6
				C141.2,182.2,130.5,185.2,119.1,185.2z"/>
		</g>
	</g>
	<path class="st1" d="M119,238C53.4,238,0,184.6,0,119S53.4,0,119,0s119,53.4,119,119c0,40-19.9,77.1-53.2,99.2l-10.4,6.9v-90.3
		c-16.7,0-33.4,0-50,0.1c-4.6,6.8-9.2,13.7-13.8,20.5c13.6,0,27,0,40.4,0h6.7v76.4l-4.8,1.4C142,236.4,130.6,238,119,238z
		 M187.8,128.3v71c23.3-20,36.9-49.1,36.9-80.2c0-58.3-47.4-105.6-105.6-105.6C60.8,13.4,13.4,60.8,13.4,119S60.8,224.7,119,224.7
		c8.6,0,17.1-1,25.3-3.1v-52.9c-12.1,0-24.1,0-36.3,0H87.1l27.1-42.6c1.5-2.2,4.7-4.5,8.2-4.6c17.5-0.1,35-0.1,52.5-0.1h12.8
		L187.8,128.3z M125.3,133.6C125.2,133.6,125.2,133.6,125.3,133.6C125.2,133.6,125.2,133.6,125.3,133.6z"/>
	<g id="_x33_65_1_">
		<path class="st0" d="M142.8,97.6c-0.1-0.1,1.2-2.2,3.8-5.2c0.7-0.8,1.5-1.5,2.2-2.3c1.8-1.8,3.4-3.5,5.2-5.3
			c0.8-0.8,1.8-0.6,2.3-0.5c0.1,0.4,0.1,1.3-0.5,2.2c-1.6,1.9-4.2,4.7-6.5,7.1l0,0l0,0c0,0-1.7,1-5.9,3.3
			C143.2,97,142.8,97.7,142.8,97.6z"/>
		<path class="st1" d="M121.6,94.1c-0.7,0.6-1.3,1.6-1.6,2.6c0.8,0.2,2.2,0.1,3.1-0.3c4.2-1.8,9.1-0.4,11.4,3.6s1.2,9-2.5,11.6
			c-3.6,2.6-8.5,2.1-11.6-1.3c-0.5-0.5-0.9-1.2-1.3-1.6c-0.3-0.3-1.1-0.5-1.5-0.3c-0.5,0.3-0.6,1.1-0.4,1.5c0.3,0.7,0.8,1.4,1.3,2
			c3.2,3.6,8.3,4.9,12.7,3c4.3-1.8,7.1-6,7-10.8c-0.1-4.9-3.1-9.1-7.7-10.6c-0.9-0.3-2.3-0.6-3.6-0.6c2.4-2,5-3.9,6.9-5.7
			c0.6-0.5,1.1-1.4,1.3-2.2c-0.5-0.3-1.1-0.8-2.2-0.8c-4.4-0.1-8.7-0.1-13.1,0c-0.9,0-1.7,0.7-2.4,1.2c0.7,0.5,1.4,1.1,2.4,1.2
			c3.1,0.1,7.2,0,10.4,0L121.6,94.1z"/>
		<path class="st1" d="M167.6,97.3c0.6-0.8,2.4-2.8,5.4-3.6c0,0,2.6-0.7,5.6,0c0.1,0,0.3,0.1,0.4,0.1c1.1,0.3,2.1,0.7,2.9,1.2
			c2.8,1.6,4.6,4.2,5.2,7.7c0.9,4.9-1.3,9.5-5.5,11.9c-4.1,2.4-9.6,2.1-13.4-1.2c-2.2-1.9-3.9-4.4-5.6-6.7c-0.1-0.1-0.1-0.2-0.2-0.2
			c-0.6-0.8-1.1-1.6-1.7-2.5c-1-1.6-1.9-3.2-3.1-4.6c-3-3.9-7.6-4.5-11.3-1.8c-3.8,2.8-4.8,8-2.3,11.9c2.6,4,7.7,5.3,11.8,2.9
			c0.9-0.5,2.1-1.1,2.9-1.5c0.5-0.2,0.9-0.3,1.4-0.4c-0.6,2-1.7,3.1-2.3,3.5c-0.5,0.4-1.1,0.7-1.4,0.9c-1.3,0.7-2.5,1-3.3,1.1
			c-0.9,0.1-5.5,0.5-9.2-2.8c-4.2-3.8-4.3-10-2.4-13.9c0.9-1.8,2.2-3,2.6-3.4c0.7-0.6,2.7-2.4,5.9-2.7c2.5-0.2,4.3,0.5,5.1,0.8
			c1.7,0.7,3.1,1.8,4.3,3.2c0.8,0.9,1.6,1.9,2.3,3c2,3.1,3.9,6.2,6.1,9.1c2.4,3.2,5.8,4.7,9.9,3.9c3.7-0.7,6.6-3.8,7-7.5
			c0.4-2.9-0.7-5.9-2.9-7.8c-0.6-0.5-1.2-1-1.9-1.3c-1-0.5-2-0.8-3-0.9s-4.1-0.1-6.5,2c-0.7,0.6-1.4,1.5-2.8,2
			c-0.3,0.1-0.6,0.2-0.8,0.3c0-0.3,0-0.5,0-0.9C166.9,98.4,167.3,97.7,167.6,97.3z"/>
		<path class="st1" d="M168.4,86.7c0,2.1,0,3.3-0.1,5.1c0,0.6-0.7,1.3-1.2,1.7c-0.5-0.4-1.1-1-1.1-1.5c0-2.4-0.1-4,0-6.1
			c0-1.1,1-1.6,1.6-1.6c4.9-0.1,9.5-0.1,14.3,0c0.6,0,1.4,0.6,1.7,1.2c-0.4,0.5-1.2,1.1-1.8,1.1C177.3,86.7,173.2,86.7,168.4,86.7z"
			/>
	</g>
</g>
</svg>
